<mxfile host="app.diagrams.net" modified="2022-05-31T15:05:44.150Z" agent="5.0 (Macintosh; Intel Mac OS X 10_15_7) AppleWebKit/605.1.15 (KHTML, like Gecko) Version/15.5 Safari/605.1.15" etag="yXiZeewbQDlAGyfnkwSC" version="18.1.3" type="github">
  <diagram id="C5RBs43oDa-KdzZeNtuy" name="Page-1">
    <mxGraphModel dx="705" dy="648" grid="1" gridSize="10" guides="1" tooltips="1" connect="1" arrows="1" fold="1" page="1" pageScale="1" pageWidth="827" pageHeight="1169" math="0" shadow="0">
      <root>
        <mxCell id="WIyWlLk6GJQsqaUBKTNV-0" />
        <mxCell id="WIyWlLk6GJQsqaUBKTNV-1" parent="WIyWlLk6GJQsqaUBKTNV-0" />
        <mxCell id="4g9OxyxRS3rQaFX1m6lN-0" value="Profesores" style="rounded=0;whiteSpace=wrap;html=1;" parent="WIyWlLk6GJQsqaUBKTNV-1" vertex="1">
          <mxGeometry x="150" y="130" width="120" height="60" as="geometry" />
        </mxCell>
        <mxCell id="4g9OxyxRS3rQaFX1m6lN-1" value="Modulos" style="rounded=0;whiteSpace=wrap;html=1;" parent="WIyWlLk6GJQsqaUBKTNV-1" vertex="1">
          <mxGeometry x="500" y="130" width="120" height="60" as="geometry" />
        </mxCell>
        <mxCell id="4g9OxyxRS3rQaFX1m6lN-2" value="Alumnos" style="rounded=0;whiteSpace=wrap;html=1;" parent="WIyWlLk6GJQsqaUBKTNV-1" vertex="1">
          <mxGeometry x="310" y="340" width="120" height="60" as="geometry" />
        </mxCell>
        <mxCell id="4g9OxyxRS3rQaFX1m6lN-3" value="relación" style="rhombus;whiteSpace=wrap;html=1;" parent="WIyWlLk6GJQsqaUBKTNV-1" vertex="1">
          <mxGeometry x="350" y="130" width="60" height="60" as="geometry" />
        </mxCell>
        <mxCell id="4g9OxyxRS3rQaFX1m6lN-5" value="" style="endArrow=none;html=1;rounded=0;exitX=1;exitY=0.5;exitDx=0;exitDy=0;entryX=0;entryY=0.5;entryDx=0;entryDy=0;" parent="WIyWlLk6GJQsqaUBKTNV-1" source="4g9OxyxRS3rQaFX1m6lN-0" target="4g9OxyxRS3rQaFX1m6lN-3" edge="1">
          <mxGeometry width="50" height="50" relative="1" as="geometry">
            <mxPoint x="270" y="220" as="sourcePoint" />
            <mxPoint x="440" y="290" as="targetPoint" />
          </mxGeometry>
        </mxCell>
        <mxCell id="4g9OxyxRS3rQaFX1m6lN-6" value="" style="endArrow=none;html=1;rounded=0;exitX=1;exitY=0.5;exitDx=0;exitDy=0;entryX=0;entryY=0.5;entryDx=0;entryDy=0;" parent="WIyWlLk6GJQsqaUBKTNV-1" source="4g9OxyxRS3rQaFX1m6lN-3" target="4g9OxyxRS3rQaFX1m6lN-1" edge="1">
          <mxGeometry width="50" height="50" relative="1" as="geometry">
            <mxPoint x="414" y="159.5" as="sourcePoint" />
            <mxPoint x="494" y="159.5" as="targetPoint" />
          </mxGeometry>
        </mxCell>
        <mxCell id="4g9OxyxRS3rQaFX1m6lN-7" value="relación" style="rhombus;whiteSpace=wrap;html=1;" parent="WIyWlLk6GJQsqaUBKTNV-1" vertex="1">
          <mxGeometry x="430" y="250" width="60" height="60" as="geometry" />
        </mxCell>
        <mxCell id="4g9OxyxRS3rQaFX1m6lN-8" value="" style="endArrow=none;html=1;rounded=0;" parent="WIyWlLk6GJQsqaUBKTNV-1" target="4g9OxyxRS3rQaFX1m6lN-7" edge="1">
          <mxGeometry width="50" height="50" relative="1" as="geometry">
            <mxPoint x="390" y="340" as="sourcePoint" />
            <mxPoint x="440" y="290" as="targetPoint" />
          </mxGeometry>
        </mxCell>
        <mxCell id="4g9OxyxRS3rQaFX1m6lN-9" value="" style="endArrow=none;html=1;rounded=0;entryX=0.25;entryY=1;entryDx=0;entryDy=0;exitX=1;exitY=0;exitDx=0;exitDy=0;" parent="WIyWlLk6GJQsqaUBKTNV-1" source="4g9OxyxRS3rQaFX1m6lN-7" target="4g9OxyxRS3rQaFX1m6lN-1" edge="1">
          <mxGeometry width="50" height="50" relative="1" as="geometry">
            <mxPoint x="490" y="260" as="sourcePoint" />
            <mxPoint x="540" y="210" as="targetPoint" />
          </mxGeometry>
        </mxCell>
        <mxCell id="4g9OxyxRS3rQaFX1m6lN-10" value="nºExpedi" style="ellipse;whiteSpace=wrap;html=1;" parent="WIyWlLk6GJQsqaUBKTNV-1" vertex="1">
          <mxGeometry x="250" y="430" width="60" height="40" as="geometry" />
        </mxCell>
        <mxCell id="4g9OxyxRS3rQaFX1m6lN-11" value="Nombre" style="ellipse;whiteSpace=wrap;html=1;" parent="WIyWlLk6GJQsqaUBKTNV-1" vertex="1">
          <mxGeometry x="320" y="440" width="60" height="40" as="geometry" />
        </mxCell>
        <mxCell id="4g9OxyxRS3rQaFX1m6lN-12" value="Apellido" style="ellipse;whiteSpace=wrap;html=1;" parent="WIyWlLk6GJQsqaUBKTNV-1" vertex="1">
          <mxGeometry x="400" y="440" width="60" height="40" as="geometry" />
        </mxCell>
        <mxCell id="4g9OxyxRS3rQaFX1m6lN-13" value="Nacimiento" style="ellipse;whiteSpace=wrap;html=1;" parent="WIyWlLk6GJQsqaUBKTNV-1" vertex="1">
          <mxGeometry x="460" y="400" width="60" height="40" as="geometry" />
        </mxCell>
        <mxCell id="4g9OxyxRS3rQaFX1m6lN-14" value="" style="endArrow=none;html=1;rounded=0;entryX=0.075;entryY=0.983;entryDx=0;entryDy=0;entryPerimeter=0;" parent="WIyWlLk6GJQsqaUBKTNV-1" target="4g9OxyxRS3rQaFX1m6lN-2" edge="1">
          <mxGeometry width="50" height="50" relative="1" as="geometry">
            <mxPoint x="290" y="430" as="sourcePoint" />
            <mxPoint x="320" y="390" as="targetPoint" />
          </mxGeometry>
        </mxCell>
        <mxCell id="4g9OxyxRS3rQaFX1m6lN-15" value="" style="endArrow=none;html=1;rounded=0;exitX=0.5;exitY=0;exitDx=0;exitDy=0;" parent="WIyWlLk6GJQsqaUBKTNV-1" source="4g9OxyxRS3rQaFX1m6lN-11" target="4g9OxyxRS3rQaFX1m6lN-2" edge="1">
          <mxGeometry width="50" height="50" relative="1" as="geometry">
            <mxPoint x="300" y="440" as="sourcePoint" />
            <mxPoint x="330" y="400" as="targetPoint" />
          </mxGeometry>
        </mxCell>
        <mxCell id="4g9OxyxRS3rQaFX1m6lN-16" value="" style="endArrow=none;html=1;rounded=0;exitX=0.283;exitY=0.05;exitDx=0;exitDy=0;exitPerimeter=0;" parent="WIyWlLk6GJQsqaUBKTNV-1" source="4g9OxyxRS3rQaFX1m6lN-12" edge="1">
          <mxGeometry width="50" height="50" relative="1" as="geometry">
            <mxPoint x="355" y="450" as="sourcePoint" />
            <mxPoint x="405" y="400" as="targetPoint" />
          </mxGeometry>
        </mxCell>
        <mxCell id="4g9OxyxRS3rQaFX1m6lN-17" value="" style="endArrow=none;html=1;rounded=0;exitX=-0.033;exitY=0.325;exitDx=0;exitDy=0;exitPerimeter=0;entryX=1;entryY=0.75;entryDx=0;entryDy=0;" parent="WIyWlLk6GJQsqaUBKTNV-1" source="4g9OxyxRS3rQaFX1m6lN-13" target="4g9OxyxRS3rQaFX1m6lN-2" edge="1">
          <mxGeometry width="50" height="50" relative="1" as="geometry">
            <mxPoint x="426.98" y="452" as="sourcePoint" />
            <mxPoint x="415" y="410" as="targetPoint" />
          </mxGeometry>
        </mxCell>
        <mxCell id="4g9OxyxRS3rQaFX1m6lN-18" value="Nombre" style="ellipse;whiteSpace=wrap;html=1;" parent="WIyWlLk6GJQsqaUBKTNV-1" vertex="1">
          <mxGeometry x="660" y="90" width="60" height="40" as="geometry" />
        </mxCell>
        <mxCell id="4g9OxyxRS3rQaFX1m6lN-19" value="Código" style="ellipse;whiteSpace=wrap;html=1;" parent="WIyWlLk6GJQsqaUBKTNV-1" vertex="1">
          <mxGeometry x="590" y="50" width="60" height="40" as="geometry" />
        </mxCell>
        <mxCell id="4g9OxyxRS3rQaFX1m6lN-20" value="" style="endArrow=none;html=1;rounded=0;exitX=0;exitY=1;exitDx=0;exitDy=0;entryX=1;entryY=0.5;entryDx=0;entryDy=0;" parent="WIyWlLk6GJQsqaUBKTNV-1" source="4g9OxyxRS3rQaFX1m6lN-18" target="4g9OxyxRS3rQaFX1m6lN-1" edge="1">
          <mxGeometry width="50" height="50" relative="1" as="geometry">
            <mxPoint x="615" y="100" as="sourcePoint" />
            <mxPoint x="665" y="50" as="targetPoint" />
          </mxGeometry>
        </mxCell>
        <mxCell id="4g9OxyxRS3rQaFX1m6lN-21" value="" style="endArrow=none;html=1;rounded=0;exitX=0;exitY=1;exitDx=0;exitDy=0;entryX=0.417;entryY=0;entryDx=0;entryDy=0;entryPerimeter=0;" parent="WIyWlLk6GJQsqaUBKTNV-1" source="4g9OxyxRS3rQaFX1m6lN-19" target="4g9OxyxRS3rQaFX1m6lN-1" edge="1">
          <mxGeometry width="50" height="50" relative="1" as="geometry">
            <mxPoint x="526.98" y="77" as="sourcePoint" />
            <mxPoint x="530" y="10" as="targetPoint" />
          </mxGeometry>
        </mxCell>
        <mxCell id="4g9OxyxRS3rQaFX1m6lN-23" value="DNI" style="ellipse;whiteSpace=wrap;html=1;" parent="WIyWlLk6GJQsqaUBKTNV-1" vertex="1">
          <mxGeometry x="50" y="67.5" width="60" height="40" as="geometry" />
        </mxCell>
        <mxCell id="4g9OxyxRS3rQaFX1m6lN-24" value="Nombre" style="ellipse;whiteSpace=wrap;html=1;" parent="WIyWlLk6GJQsqaUBKTNV-1" vertex="1">
          <mxGeometry x="120" y="77.5" width="60" height="40" as="geometry" />
        </mxCell>
        <mxCell id="4g9OxyxRS3rQaFX1m6lN-25" value="Dirección" style="ellipse;whiteSpace=wrap;html=1;" parent="WIyWlLk6GJQsqaUBKTNV-1" vertex="1">
          <mxGeometry x="200" y="77.5" width="60" height="40" as="geometry" />
        </mxCell>
        <mxCell id="4g9OxyxRS3rQaFX1m6lN-26" value="Telefono" style="ellipse;whiteSpace=wrap;html=1;" parent="WIyWlLk6GJQsqaUBKTNV-1" vertex="1">
          <mxGeometry x="260" y="37.5" width="60" height="40" as="geometry" />
        </mxCell>
        <mxCell id="4g9OxyxRS3rQaFX1m6lN-27" value="" style="endArrow=none;html=1;rounded=0;entryX=0;entryY=0;entryDx=0;entryDy=0;" parent="WIyWlLk6GJQsqaUBKTNV-1" source="4g9OxyxRS3rQaFX1m6lN-23" target="4g9OxyxRS3rQaFX1m6lN-0" edge="1">
          <mxGeometry width="50" height="50" relative="1" as="geometry">
            <mxPoint x="80" y="110" as="sourcePoint" />
            <mxPoint x="119" y="36.48000000000002" as="targetPoint" />
          </mxGeometry>
        </mxCell>
        <mxCell id="4g9OxyxRS3rQaFX1m6lN-28" value="" style="endArrow=none;html=1;rounded=0;entryX=0.25;entryY=0;entryDx=0;entryDy=0;exitX=0.583;exitY=1.013;exitDx=0;exitDy=0;exitPerimeter=0;" parent="WIyWlLk6GJQsqaUBKTNV-1" source="4g9OxyxRS3rQaFX1m6lN-24" target="4g9OxyxRS3rQaFX1m6lN-0" edge="1">
          <mxGeometry width="50" height="50" relative="1" as="geometry">
            <mxPoint x="170" y="110" as="sourcePoint" />
            <mxPoint x="161.42857142857133" y="37.5" as="targetPoint" />
          </mxGeometry>
        </mxCell>
        <mxCell id="4g9OxyxRS3rQaFX1m6lN-29" value="" style="endArrow=none;html=1;rounded=0;entryX=0.5;entryY=0;entryDx=0;entryDy=0;" parent="WIyWlLk6GJQsqaUBKTNV-1" source="4g9OxyxRS3rQaFX1m6lN-25" target="4g9OxyxRS3rQaFX1m6lN-0" edge="1">
          <mxGeometry width="50" height="50" relative="1" as="geometry">
            <mxPoint x="155" y="87.5" as="sourcePoint" />
            <mxPoint x="205" y="37.5" as="targetPoint" />
          </mxGeometry>
        </mxCell>
        <mxCell id="4g9OxyxRS3rQaFX1m6lN-30" value="" style="endArrow=none;html=1;rounded=0;exitX=0.717;exitY=0.941;exitDx=0;exitDy=0;exitPerimeter=0;entryX=1;entryY=0;entryDx=0;entryDy=0;" parent="WIyWlLk6GJQsqaUBKTNV-1" source="4g9OxyxRS3rQaFX1m6lN-26" target="4g9OxyxRS3rQaFX1m6lN-0" edge="1">
          <mxGeometry width="50" height="50" relative="1" as="geometry">
            <mxPoint x="226.98000000000002" y="89.5" as="sourcePoint" />
            <mxPoint x="230" y="22.5" as="targetPoint" />
          </mxGeometry>
        </mxCell>
        <mxCell id="4g9OxyxRS3rQaFX1m6lN-33" value="&lt;u&gt;ID&lt;/u&gt;" style="ellipse;whiteSpace=wrap;html=1;" parent="WIyWlLk6GJQsqaUBKTNV-1" vertex="1">
          <mxGeometry x="30" y="150" width="60" height="40" as="geometry" />
        </mxCell>
        <mxCell id="4g9OxyxRS3rQaFX1m6lN-34" value="" style="endArrow=none;html=1;rounded=0;entryX=0;entryY=0.5;entryDx=0;entryDy=0;" parent="WIyWlLk6GJQsqaUBKTNV-1" source="4g9OxyxRS3rQaFX1m6lN-33" target="4g9OxyxRS3rQaFX1m6lN-0" edge="1">
          <mxGeometry width="50" height="50" relative="1" as="geometry">
            <mxPoint x="80" y="172.5" as="sourcePoint" />
            <mxPoint x="150" y="192.5" as="targetPoint" />
          </mxGeometry>
        </mxCell>
        <mxCell id="4g9OxyxRS3rQaFX1m6lN-36" value="curso" style="rounded=0;whiteSpace=wrap;html=1;" parent="WIyWlLk6GJQsqaUBKTNV-1" vertex="1">
          <mxGeometry x="707" y="140" width="120" height="60" as="geometry" />
        </mxCell>
        <mxCell id="4g9OxyxRS3rQaFX1m6lN-37" value="relación" style="rhombus;whiteSpace=wrap;html=1;" parent="WIyWlLk6GJQsqaUBKTNV-1" vertex="1">
          <mxGeometry x="630" y="230" width="60" height="60" as="geometry" />
        </mxCell>
        <mxCell id="4g9OxyxRS3rQaFX1m6lN-38" value="" style="endArrow=none;html=1;rounded=0;entryX=0;entryY=0;entryDx=0;entryDy=0;exitX=1;exitY=1;exitDx=0;exitDy=0;" parent="WIyWlLk6GJQsqaUBKTNV-1" source="4g9OxyxRS3rQaFX1m6lN-1" target="4g9OxyxRS3rQaFX1m6lN-37" edge="1">
          <mxGeometry width="50" height="50" relative="1" as="geometry">
            <mxPoint x="370" y="300" as="sourcePoint" />
            <mxPoint x="420" y="250" as="targetPoint" />
          </mxGeometry>
        </mxCell>
        <mxCell id="4g9OxyxRS3rQaFX1m6lN-39" value="" style="endArrow=none;html=1;rounded=0;exitX=0.118;exitY=1.022;exitDx=0;exitDy=0;exitPerimeter=0;" parent="WIyWlLk6GJQsqaUBKTNV-1" source="4g9OxyxRS3rQaFX1m6lN-36" edge="1">
          <mxGeometry width="50" height="50" relative="1" as="geometry">
            <mxPoint x="630" y="200" as="sourcePoint" />
            <mxPoint x="670" y="240" as="targetPoint" />
          </mxGeometry>
        </mxCell>
        <mxCell id="4g9OxyxRS3rQaFX1m6lN-40" value="&lt;u&gt;ID aut incremet&lt;/u&gt;" style="ellipse;whiteSpace=wrap;html=1;" parent="WIyWlLk6GJQsqaUBKTNV-1" vertex="1">
          <mxGeometry x="850" y="60" width="60" height="40" as="geometry" />
        </mxCell>
        <mxCell id="4g9OxyxRS3rQaFX1m6lN-41" value="" style="endArrow=none;html=1;rounded=0;entryX=0.75;entryY=0;entryDx=0;entryDy=0;" parent="WIyWlLk6GJQsqaUBKTNV-1" source="4g9OxyxRS3rQaFX1m6lN-40" target="4g9OxyxRS3rQaFX1m6lN-36" edge="1">
          <mxGeometry width="50" height="50" relative="1" as="geometry">
            <mxPoint x="810" y="262.5" as="sourcePoint" />
            <mxPoint x="880" y="250" as="targetPoint" />
          </mxGeometry>
        </mxCell>
        <mxCell id="4g9OxyxRS3rQaFX1m6lN-42" value="Nombre" style="ellipse;whiteSpace=wrap;html=1;" parent="WIyWlLk6GJQsqaUBKTNV-1" vertex="1">
          <mxGeometry x="867" y="107.5" width="60" height="40" as="geometry" />
        </mxCell>
        <mxCell id="4g9OxyxRS3rQaFX1m6lN-43" value="" style="endArrow=none;html=1;rounded=0;exitX=0;exitY=1;exitDx=0;exitDy=0;entryX=1;entryY=0.5;entryDx=0;entryDy=0;" parent="WIyWlLk6GJQsqaUBKTNV-1" source="4g9OxyxRS3rQaFX1m6lN-42" edge="1">
          <mxGeometry width="50" height="50" relative="1" as="geometry">
            <mxPoint x="822" y="117.5" as="sourcePoint" />
            <mxPoint x="827" y="177.5" as="targetPoint" />
          </mxGeometry>
        </mxCell>
        <mxCell id="4g9OxyxRS3rQaFX1m6lN-44" value="&lt;u&gt;ID aut incremet&lt;/u&gt;" style="ellipse;whiteSpace=wrap;html=1;" parent="WIyWlLk6GJQsqaUBKTNV-1" vertex="1">
          <mxGeometry x="460" y="37.5" width="60" height="40" as="geometry" />
        </mxCell>
        <mxCell id="4g9OxyxRS3rQaFX1m6lN-45" value="" style="endArrow=none;html=1;rounded=0;entryX=0.25;entryY=0;entryDx=0;entryDy=0;" parent="WIyWlLk6GJQsqaUBKTNV-1" source="4g9OxyxRS3rQaFX1m6lN-44" target="4g9OxyxRS3rQaFX1m6lN-1" edge="1">
          <mxGeometry width="50" height="50" relative="1" as="geometry">
            <mxPoint x="510" y="60" as="sourcePoint" />
            <mxPoint x="580" y="47.5" as="targetPoint" />
          </mxGeometry>
        </mxCell>
        <mxCell id="4g9OxyxRS3rQaFX1m6lN-46" value="&lt;u&gt;ID aut incremet&lt;/u&gt;" style="ellipse;whiteSpace=wrap;html=1;" parent="WIyWlLk6GJQsqaUBKTNV-1" vertex="1">
          <mxGeometry x="140" y="463.59000000000003" width="60" height="40" as="geometry" />
        </mxCell>
        <mxCell id="4g9OxyxRS3rQaFX1m6lN-47" value="" style="endArrow=none;html=1;rounded=0;entryX=0.25;entryY=0;entryDx=0;entryDy=0;" parent="WIyWlLk6GJQsqaUBKTNV-1" source="4g9OxyxRS3rQaFX1m6lN-46" edge="1">
          <mxGeometry width="50" height="50" relative="1" as="geometry">
            <mxPoint x="290" y="302.5" as="sourcePoint" />
            <mxPoint x="310" y="372.5" as="targetPoint" />
          </mxGeometry>
        </mxCell>
        <mxCell id="4g9OxyxRS3rQaFX1m6lN-48" value="N:1" style="text;html=1;align=center;verticalAlign=middle;resizable=0;points=[];autosize=1;strokeColor=none;fillColor=none;" parent="WIyWlLk6GJQsqaUBKTNV-1" vertex="1">
          <mxGeometry x="645" y="290" width="30" height="20" as="geometry" />
        </mxCell>
        <mxCell id="4g9OxyxRS3rQaFX1m6lN-49" value="1 cantidad de modelos por curso" style="text;html=1;align=center;verticalAlign=middle;resizable=0;points=[];autosize=1;strokeColor=none;fillColor=none;" parent="WIyWlLk6GJQsqaUBKTNV-1" vertex="1">
          <mxGeometry x="555" y="320" width="190" height="20" as="geometry" />
        </mxCell>
        <mxCell id="4g9OxyxRS3rQaFX1m6lN-51" value="N cantidad de cursos por modulo" style="text;html=1;align=center;verticalAlign=middle;resizable=0;points=[];autosize=1;strokeColor=none;fillColor=none;" parent="WIyWlLk6GJQsqaUBKTNV-1" vertex="1">
          <mxGeometry x="555" y="350" width="190" height="20" as="geometry" />
        </mxCell>
        <mxCell id="4g9OxyxRS3rQaFX1m6lN-52" value="" style="endArrow=none;html=1;rounded=0;exitX=1;exitY=0.25;exitDx=0;exitDy=0;" parent="WIyWlLk6GJQsqaUBKTNV-1" source="4g9OxyxRS3rQaFX1m6lN-2" edge="1">
          <mxGeometry width="50" height="50" relative="1" as="geometry">
            <mxPoint x="490" y="330" as="sourcePoint" />
            <mxPoint x="740" y="440" as="targetPoint" />
          </mxGeometry>
        </mxCell>
        <mxCell id="4g9OxyxRS3rQaFX1m6lN-53" value="relación" style="rhombus;whiteSpace=wrap;html=1;" parent="WIyWlLk6GJQsqaUBKTNV-1" vertex="1">
          <mxGeometry x="720" y="410" width="80" height="80" as="geometry" />
        </mxCell>
        <mxCell id="4g9OxyxRS3rQaFX1m6lN-54" value="" style="endArrow=none;html=1;rounded=0;entryX=0.842;entryY=1.05;entryDx=0;entryDy=0;entryPerimeter=0;exitX=1;exitY=0;exitDx=0;exitDy=0;" parent="WIyWlLk6GJQsqaUBKTNV-1" source="4g9OxyxRS3rQaFX1m6lN-53" target="4g9OxyxRS3rQaFX1m6lN-36" edge="1">
          <mxGeometry width="50" height="50" relative="1" as="geometry">
            <mxPoint x="490" y="330" as="sourcePoint" />
            <mxPoint x="540" y="280" as="targetPoint" />
          </mxGeometry>
        </mxCell>
        <mxCell id="4g9OxyxRS3rQaFX1m6lN-55" value="N: M" style="text;html=1;align=center;verticalAlign=middle;resizable=0;points=[];autosize=1;strokeColor=none;fillColor=none;" parent="WIyWlLk6GJQsqaUBKTNV-1" vertex="1">
          <mxGeometry x="740" y="490" width="40" height="20" as="geometry" />
        </mxCell>
        <mxCell id="4g9OxyxRS3rQaFX1m6lN-56" value="N: M" style="text;html=1;align=center;verticalAlign=middle;resizable=0;points=[];autosize=1;strokeColor=none;fillColor=none;" parent="WIyWlLk6GJQsqaUBKTNV-1" vertex="1">
          <mxGeometry x="440" y="310" width="40" height="20" as="geometry" />
        </mxCell>
        <mxCell id="4g9OxyxRS3rQaFX1m6lN-57" value="1:N" style="text;html=1;align=center;verticalAlign=middle;resizable=0;points=[];autosize=1;strokeColor=none;fillColor=none;" parent="WIyWlLk6GJQsqaUBKTNV-1" vertex="1">
          <mxGeometry x="365" y="200" width="30" height="20" as="geometry" />
        </mxCell>
        <mxCell id="4g9OxyxRS3rQaFX1m6lN-58" value="fk_Id Profesor" style="ellipse;whiteSpace=wrap;html=1;" parent="WIyWlLk6GJQsqaUBKTNV-1" vertex="1">
          <mxGeometry x="520" width="110" height="40" as="geometry" />
        </mxCell>
        <mxCell id="4g9OxyxRS3rQaFX1m6lN-59" value="" style="endArrow=none;html=1;rounded=0;exitX=0.325;exitY=-0.033;exitDx=0;exitDy=0;exitPerimeter=0;" parent="WIyWlLk6GJQsqaUBKTNV-1" source="4g9OxyxRS3rQaFX1m6lN-1" target="4g9OxyxRS3rQaFX1m6lN-58" edge="1">
          <mxGeometry width="50" height="50" relative="1" as="geometry">
            <mxPoint x="490" y="330" as="sourcePoint" />
            <mxPoint x="540" y="280" as="targetPoint" />
          </mxGeometry>
        </mxCell>
        <mxCell id="4g9OxyxRS3rQaFX1m6lN-60" value="fk_Id Curso" style="ellipse;whiteSpace=wrap;html=1;" parent="WIyWlLk6GJQsqaUBKTNV-1" vertex="1">
          <mxGeometry x="660" y="10" width="110" height="40" as="geometry" />
        </mxCell>
        <mxCell id="4g9OxyxRS3rQaFX1m6lN-61" value="" style="endArrow=none;html=1;rounded=0;entryX=0.227;entryY=0.9;entryDx=0;entryDy=0;entryPerimeter=0;exitX=1;exitY=0;exitDx=0;exitDy=0;" parent="WIyWlLk6GJQsqaUBKTNV-1" source="4g9OxyxRS3rQaFX1m6lN-1" target="4g9OxyxRS3rQaFX1m6lN-60" edge="1">
          <mxGeometry width="50" height="50" relative="1" as="geometry">
            <mxPoint x="490" y="330" as="sourcePoint" />
            <mxPoint x="540" y="280" as="targetPoint" />
          </mxGeometry>
        </mxCell>
        <mxCell id="4g9OxyxRS3rQaFX1m6lN-62" value="&lt;u&gt;ID aut incremet&lt;/u&gt;" style="ellipse;whiteSpace=wrap;html=1;" parent="WIyWlLk6GJQsqaUBKTNV-1" vertex="1">
          <mxGeometry x="850" y="395.99" width="110" height="40" as="geometry" />
        </mxCell>
        <mxCell id="4g9OxyxRS3rQaFX1m6lN-63" value="" style="endArrow=none;html=1;rounded=0;" parent="WIyWlLk6GJQsqaUBKTNV-1" source="4g9OxyxRS3rQaFX1m6lN-53" target="4g9OxyxRS3rQaFX1m6lN-62" edge="1">
          <mxGeometry width="50" height="50" relative="1" as="geometry">
            <mxPoint x="869" y="524.01" as="sourcePoint" />
            <mxPoint x="870" y="675.99" as="targetPoint" />
          </mxGeometry>
        </mxCell>
        <mxCell id="4g9OxyxRS3rQaFX1m6lN-64" value="fk_Id Alumno" style="ellipse;whiteSpace=wrap;html=1;" parent="WIyWlLk6GJQsqaUBKTNV-1" vertex="1">
          <mxGeometry x="850" y="463.59000000000003" width="110" height="40" as="geometry" />
        </mxCell>
        <mxCell id="4g9OxyxRS3rQaFX1m6lN-65" value="" style="endArrow=none;html=1;rounded=0;" parent="WIyWlLk6GJQsqaUBKTNV-1" source="4g9OxyxRS3rQaFX1m6lN-53" target="4g9OxyxRS3rQaFX1m6lN-64" edge="1">
          <mxGeometry width="50" height="50" relative="1" as="geometry">
            <mxPoint x="792.3995775852784" y="509.9995775852784" as="sourcePoint" />
            <mxPoint x="870" y="743.59" as="targetPoint" />
          </mxGeometry>
        </mxCell>
        <mxCell id="4g9OxyxRS3rQaFX1m6lN-66" value="fk_Id Curso" style="ellipse;whiteSpace=wrap;html=1;" parent="WIyWlLk6GJQsqaUBKTNV-1" vertex="1">
          <mxGeometry x="840" y="330" width="110" height="40" as="geometry" />
        </mxCell>
        <mxCell id="4g9OxyxRS3rQaFX1m6lN-67" value="" style="endArrow=none;html=1;rounded=0;entryX=0.227;entryY=0.9;entryDx=0;entryDy=0;entryPerimeter=0;" parent="WIyWlLk6GJQsqaUBKTNV-1" target="4g9OxyxRS3rQaFX1m6lN-66" edge="1">
          <mxGeometry width="50" height="50" relative="1" as="geometry">
            <mxPoint x="790" y="440" as="sourcePoint" />
            <mxPoint x="720" y="600" as="targetPoint" />
          </mxGeometry>
        </mxCell>
        <mxCell id="4g9OxyxRS3rQaFX1m6lN-68" value="&lt;u&gt;ID aut incremet&lt;/u&gt;" style="ellipse;whiteSpace=wrap;html=1;" parent="WIyWlLk6GJQsqaUBKTNV-1" vertex="1">
          <mxGeometry x="220" y="230" width="60" height="40" as="geometry" />
        </mxCell>
        <mxCell id="4g9OxyxRS3rQaFX1m6lN-69" value="" style="endArrow=none;html=1;rounded=0;exitX=0;exitY=0.5;exitDx=0;exitDy=0;" parent="WIyWlLk6GJQsqaUBKTNV-1" source="4g9OxyxRS3rQaFX1m6lN-7" target="4g9OxyxRS3rQaFX1m6lN-68" edge="1">
          <mxGeometry width="50" height="50" relative="1" as="geometry">
            <mxPoint x="52.399577585278394" y="334.79957758527837" as="sourcePoint" />
            <mxPoint x="130" y="568.39" as="targetPoint" />
          </mxGeometry>
        </mxCell>
        <mxCell id="4g9OxyxRS3rQaFX1m6lN-70" value="fk_Id Alumno" style="ellipse;whiteSpace=wrap;html=1;" parent="WIyWlLk6GJQsqaUBKTNV-1" vertex="1">
          <mxGeometry x="230" y="280" width="50" height="40" as="geometry" />
        </mxCell>
        <mxCell id="4g9OxyxRS3rQaFX1m6lN-71" value="" style="endArrow=none;html=1;rounded=0;" parent="WIyWlLk6GJQsqaUBKTNV-1" target="4g9OxyxRS3rQaFX1m6lN-70" edge="1">
          <mxGeometry width="50" height="50" relative="1" as="geometry">
            <mxPoint x="440" y="290" as="sourcePoint" />
            <mxPoint x="130" y="635.99" as="targetPoint" />
          </mxGeometry>
        </mxCell>
        <mxCell id="4g9OxyxRS3rQaFX1m6lN-72" value="fk_Id Modulo" style="ellipse;whiteSpace=wrap;html=1;" parent="WIyWlLk6GJQsqaUBKTNV-1" vertex="1">
          <mxGeometry x="290" y="210" width="70" height="40" as="geometry" />
        </mxCell>
        <mxCell id="4g9OxyxRS3rQaFX1m6lN-73" value="" style="endArrow=none;html=1;rounded=0;entryX=1;entryY=0.5;entryDx=0;entryDy=0;exitX=0;exitY=0;exitDx=0;exitDy=0;" parent="WIyWlLk6GJQsqaUBKTNV-1" source="4g9OxyxRS3rQaFX1m6lN-7" target="4g9OxyxRS3rQaFX1m6lN-72" edge="1">
          <mxGeometry width="50" height="50" relative="1" as="geometry">
            <mxPoint x="50" y="332.4" as="sourcePoint" />
            <mxPoint x="-20" y="492.4" as="targetPoint" />
          </mxGeometry>
        </mxCell>
        <mxCell id="4g9OxyxRS3rQaFX1m6lN-74" style="edgeStyle=none;rounded=0;orthogonalLoop=1;jettySize=auto;html=1;exitX=0;exitY=0.5;exitDx=0;exitDy=0;" parent="WIyWlLk6GJQsqaUBKTNV-1" source="4g9OxyxRS3rQaFX1m6lN-68" target="4g9OxyxRS3rQaFX1m6lN-68" edge="1">
          <mxGeometry relative="1" as="geometry" />
        </mxCell>
        <mxCell id="4g9OxyxRS3rQaFX1m6lN-75" value="Delegado" style="ellipse;whiteSpace=wrap;html=1;" parent="WIyWlLk6GJQsqaUBKTNV-1" vertex="1">
          <mxGeometry x="587.5699999999999" y="486.02000000000004" width="110" height="40" as="geometry" />
        </mxCell>
        <mxCell id="4g9OxyxRS3rQaFX1m6lN-76" value="" style="endArrow=none;html=1;rounded=0;" parent="WIyWlLk6GJQsqaUBKTNV-1" source="4g9OxyxRS3rQaFX1m6lN-53" target="4g9OxyxRS3rQaFX1m6lN-75" edge="1">
          <mxGeometry width="50" height="50" relative="1" as="geometry">
            <mxPoint x="529.9958559620823" y="480.0041440379177" as="sourcePoint" />
            <mxPoint x="607.5699999999999" y="766.02" as="targetPoint" />
          </mxGeometry>
        </mxCell>
        <mxCell id="wQko4P68A_SNIIUmxRi2-0" value="Empresa" style="rounded=0;whiteSpace=wrap;html=1;" vertex="1" parent="WIyWlLk6GJQsqaUBKTNV-1">
          <mxGeometry x="80" y="670" width="120" height="60" as="geometry" />
        </mxCell>
      </root>
    </mxGraphModel>
  </diagram>
</mxfile>
